# xmcd CD database file generated by Grip 3.0.7
# 
# Track frame offsets:
#       150
#       15079
#       24834
#       45977
#       58280
#       74743
#       94061
#       104960
#       123035
#       143216
#       154856
# 
# Disc length: 2418 seconds
# 
# Revision: 1
# Processed by: cddbd v1.5.1PL0 Copyright (c) Steve Scherf et al.
# Submitted via: Grip 3.0.7
# 
DISCID=8f09700b
DTITLE=Wendy Grossman - Roseville Fair
DYEAR=1980
DGENRE=Folk
TTITLE0=Roseville Fair
TTITLE1=The Lark in the Morning
TTITLE2=Seven Gypsies
TTITLE3=The False Young Man
TTITLE4=A Scarborough Settler's Lament
TTITLE5=The Minstrel
TTITLE6=Cameron Highlanders
TTITLE7=One Morning in May
TTITLE8=Sir Patrick Spens
TTITLE9=Archie's March - The Gravel Walk
TTITLE10=Turning Toward the Morning
EXTD=
EXTT0=
EXTT1=
EXTT2=
EXTT3=
EXTT4=
EXTT5=
EXTT6=
EXTT7=
EXTT8=
EXTT9=
EXTT10=
PLAYORDER=
